<svg width="1024" height="1024" viewBox="0 0 1024 1024" xmlns="http://www.w3.org/2000/svg">
  <!-- Transparent background — Android adaptive icon foreground layer.
       Sheep fits within the 66% safe zone (678px centered = offset ~173px each side).
       Scale: 678 * 0.72 / 100 = 4.88 → sheep ~547px tall, offset x=238, y=200 -->
  <g transform="translate(238, 180) scale(5.48)">
    <circle cx="50" cy="68" r="20" fill="#0A0A0A"/>
    <circle cx="33" cy="65" r="15" fill="#0A0A0A"/>
    <circle cx="67" cy="65" r="15" fill="#0A0A0A"/>
    <circle cx="40" cy="50" r="11" fill="#0A0A0A"/>
    <circle cx="60" cy="51" r="13" fill="#0A0A0A"/>
    <circle cx="50" cy="47" r="12" fill="#0A0A0A"/>
    <ellipse cx="50" cy="29" rx="12" ry="13" fill="#0A0A0A"/>
    <ellipse cx="38" cy="19" rx="6" ry="8" fill="#0A0A0A" transform="rotate(-22 38 19)"/>
    <ellipse cx="62" cy="19" rx="6" ry="8" fill="#0A0A0A" transform="rotate(22 62 19)"/>
    <rect x="28" y="85" width="9" height="22" rx="4.5" fill="#0A0A0A"/>
    <rect x="40" y="86" width="9" height="22" rx="4.5" fill="#0A0A0A"/>
    <rect x="51" y="86" width="9" height="22" rx="4.5" fill="#0A0A0A"/>
    <rect x="63" y="85" width="9" height="22" rx="4.5" fill="#0A0A0A"/>
    <circle cx="45" cy="26" r="2.5" fill="#FAFAFA"/>
    <circle cx="55" cy="26" r="2.5" fill="#FAFAFA"/>
    <ellipse cx="50" cy="33" rx="3.5" ry="2.5" fill="#FAFAFA" opacity=".55"/>
  </g>
</svg>
